<?xml version="1.0" encoding="utf-8"?>
<!-- Generator: Adobe Illustrator 23.1.0, SVG Export Plug-In . SVG Version: 6.00 Build 0)  -->
<svg version="1.1" id="Layer_1" xmlns="http://www.w3.org/2000/svg" xmlns:xlink="http://www.w3.org/1999/xlink" x="0px" y="0px"
	 viewBox="0 0 1920 1080" style="enable-background:new 0 0 1920 1080;" xml:space="preserve">
<style type="text/css">
	.st0{fill:#79BAC1;}
</style>
<g>
	<g>
		<path class="st0" d="M-94.69-28.02c45.21-26.2,91.14-52.51,141.14-68.54c49.04-15.72,99.99-18.82,149.94-5.36
			c47.99,12.93,91.8,37.91,132.82,65.38c43.32,29.01,85.32,60.45,126.04,92.98c78.39,62.62,149.82,133.52,202.76,219.31
			c51.58,83.59,82.74,175.16,99.89,271.49c14.84,83.37,27.18,175.8,91.12,237.7c57.75,55.9,141.5,71.79,219.24,69.91
			c94.56-2.29,189.79-27.89,277.3-62.56c47.01-18.62,91.25-41.94,135.7-65.85c46.92-25.24,96.85-45.48,150.27-28.73
			c43.82,13.74,84.84,41.81,121.46,68.97c35.76,26.51,68.89,56.57,98.93,89.42c59.71,65.31,107.19,141.89,138.5,224.7
			c7.61,20.14,14.2,40.63,19.89,61.39c0.51,1.86,3.4,1.07,2.89-0.8c-46.08-168.24-157.05-317.12-305.41-409.01
			c-39.73-24.61-83.65-48.66-131.98-43.64c-48.16,5-90.24,32.4-131.95,54.7c-92.78,49.62-194.28,84.59-298.25,101.16
			c-83.64,13.33-178.03,13.05-253.31-30.74c-38.79-22.57-68.37-56.52-87.59-96.91c-20.04-42.14-29.32-88.47-37.52-134.1
			c-8.33-46.38-16.01-92.71-29.68-137.9c-13.95-46.1-32.54-90.81-55.34-133.24c-47.56-88.5-113.72-163.53-189.87-228.54
			c-38.4-32.79-78.75-63.22-119.63-92.84c-40.42-29.29-82.02-57.86-127.86-78.07c-43.39-19.13-90.23-29.64-137.75-24.84
			c-48.52,4.9-94.39,23.41-137.47,45.47C-52.72-55.69-74.49-43.19-96.2-30.61C-97.87-29.64-96.36-27.05-94.69-28.02L-94.69-28.02z"
			/>
	</g>
</g>
</svg>
