<?xml version="1.0" encoding="utf-8"?>
<!-- Generator: Adobe Illustrator 23.1.0, SVG Export Plug-In . SVG Version: 6.00 Build 0)  -->
<svg version="1.1" id="Layer_1" focusable="false" xmlns="http://www.w3.org/2000/svg" xmlns:xlink="http://www.w3.org/1999/xlink"
	 x="0px" y="0px" viewBox="0 0 576 512" style="enable-background:new 0 0 576 512;" xml:space="preserve">
<style type="text/css">
	.st0{fill:#EA5E5E;}
</style>
<path class="st0" d="M295,224c-79.4,0-192,122.8-192,200.2c0,34.9,26.8,55.8,71.7,55.8c48.8,0,81.1-25.1,120.3-25.1
	c39.5,0,71.9,25.1,120.3,25.1c44.9,0,71.7-20.9,71.7-55.8C487,346.8,374.4,224,295,224z M147.7,211.4
	c-10.4-34.7-42.4-57.1-71.6-50.1c-29.1,7-44.3,40.7-33.9,75.3s42.4,57.1,71.6,50.1C143,279.8,158.1,246,147.7,211.4L147.7,211.4z
	 M232.4,190.6c30.9-8.1,46.4-49.9,34.6-93.4c-11.8-43.4-46.5-72-77.5-63.9s-46.4,49.9-34.6,93.4S201.5,198.8,232.4,190.6z
	 M513.8,161.3c-29.1-7-61.1,15.5-71.6,50.1c-10.4,34.7,4.8,68.4,33.9,75.3c29.1,7,61.1-15.5,71.6-50.1
	C558.1,202,543,168.2,513.8,161.3L513.8,161.3z M357.6,190.6c30.9,8.1,65.6-20.4,77.5-63.9s-3.6-85.2-34.6-93.4S334.8,53.8,323,97.3
	S326.6,182.5,357.6,190.6z"/>
</svg>
